# 3ds Max Wavefront OBJ Exporter v0.97b - (c)2007 guruware
# File Created: 13.10.2014 23:52:14

mtllib gun.mtl

#
# object Box003
#

v  -1.2265 -18.6909 -5.5844
v  -4.6837 -22.8380 -5.5844
v  -12.1764 -5.2944 -5.5844
v  -6.9816 -5.2944 -5.5844
v  -12.1764 -5.2944 5.5844
v  -4.6837 -22.8380 5.5844
v  -1.2265 -18.6909 5.5844
v  -6.9816 -5.2944 5.5844
v  21.7296 -22.8384 -5.5844
v  18.9276 -18.6910 -5.5844
v  18.9276 -18.6910 5.5844
v  21.7296 -22.8384 5.5844
v  12.0333 -5.2944 -9.7366
v  24.1393 6.0626 -9.7366
v  50.0236 -18.4037 -9.7366
v  25.3522 -33.8008 -9.7366
v  12.0333 -5.2944 9.1511
v  25.3522 -33.8008 9.1511
v  50.0236 -18.4037 9.1511
v  24.1393 6.0626 9.1511
v  -23.3132 0.4576 -12.3461
v  -23.3132 6.9980 -17.8820
v  10.6444 6.9980 -17.8820
v  10.6444 0.4576 -12.3461
v  -23.3132 18.0210 -17.8820
v  10.6444 18.0210 -17.8820
v  -23.3132 24.5606 -12.3461
v  10.6444 24.5606 -12.3461
v  16.8030 18.0210 -12.3461
v  10.6444 0.4576 12.3461
v  10.6444 6.9980 17.8820
v  -23.3132 6.9980 17.8820
v  -23.3132 0.4576 12.3461
v  10.6444 18.0210 17.8820
v  -23.3132 18.0210 17.8820
v  10.6444 24.5606 12.3461
v  -23.3132 24.5606 12.3461
v  16.8027 18.0210 12.3461
v  -30.0236 12.7131 13.4785
v  -30.0236 24.3859 6.7392
v  -50.0236 24.3858 6.7392
v  -50.0236 12.7131 13.4785
v  -34.9538 33.8004 3.0560
v  -34.9538 33.8004 -3.0560
v  -38.4801 33.8008 -3.0560
v  -38.4801 33.8008 3.0560
v  -30.0236 24.3858 -6.7392
v  -30.0236 12.7131 -13.4785
v  -50.0236 12.7131 -13.4785
v  -50.0236 24.3858 -6.7392
v  -30.0236 1.0404 -6.7392
v  -50.0236 1.0404 -6.7392
v  -30.0236 1.0404 6.7392
v  -50.0236 1.0404 6.7392
v  -30.4426 19.0410 3.6534
v  -30.4426 19.0410 -3.6534
v  -30.4426 12.7131 -7.3068
v  -30.4426 6.3853 3.6534
v  -30.4426 6.3853 -3.6534
v  -30.4426 12.7131 7.3068
v  -50.0236 19.0410 3.6534
v  -50.0236 12.7131 7.3068
v  -50.0236 19.0410 -3.6534
v  -50.0236 12.7131 -7.3068
v  -50.0236 6.3853 -3.6534
v  -50.0236 6.3853 3.6534
v  -34.9537 24.3858 3.0560
v  -44.4541 24.3856 3.0560
v  -34.9537 24.3858 -3.0560
v  -44.4541 24.3856 -3.0560
v  -30.0237 -5.2941 -12.3461
v  -30.0237 30.5500 -12.3461
v  12.2931 30.5496 -12.3461
v  12.0333 -5.2944 -12.3461
v  -30.0237 -5.2941 12.3461
v  12.0333 -5.2944 12.3461
v  12.2931 30.5496 12.3461
v  -30.0237 30.5500 12.3461
v  4.8548 -14.1944 -3.0039
v  9.3965 -14.1945 -2.9961
v  9.3965 -14.1945 3.0039
v  4.8548 -14.1944 2.9961
v  24.1393 6.0627 -12.3461
v  24.1395 18.6913 -12.3461
v  24.1395 18.6913 12.3461
v  24.1393 6.0627 12.3461
v  21.2145 33.7410 -3.0000
v  21.2145 33.7410 3.0000
v  24.1361 30.6921 3.0000
v  24.1361 30.6921 -3.0000
v  1.9978 -5.4247 -3.0039
v  9.3963 -5.2950 -2.9961
v  9.3963 -5.2950 3.0039
v  1.9978 -5.4247 2.9961
v  15.3232 27.5165 3.0000
v  15.3232 27.5165 -3.0000
v  21.1094 21.7245 3.0000
v  21.1094 21.7245 -3.0000
v  16.8027 6.9980 12.3461
v  16.8030 6.9980 -12.3461
# 100 vertices

vn 0.0000 0.0000 -1.0000
vn -0.0000 -0.0000 1.0000
vn -0.9196 -0.3928 -0.0000
vn 0.8286 0.5598 0.0000
vn 0.0000 1.0000 0.0000
vn -0.0000 -1.0000 -0.0000
vn 0.9188 0.3947 0.0000
vn -0.9060 -0.4233 -0.0000
vn 0.5294 -0.8483 -0.0000
vn 0.6869 0.7267 0.0000
vn -0.6842 0.7293 0.0000
vn 0.0000 -0.6461 -0.7633
vn 0.0000 -0.0000 -1.0000
vn 0.0000 0.6461 -0.7633
vn -1.0000 0.0000 -0.0000
vn 0.5657 0.5328 -0.6294
vn -0.0000 -0.6461 0.7633
vn 0.0000 0.6461 0.7633
vn 0.5658 0.5328 0.6294
vn -0.0000 0.5000 0.8660
vn 0.0001 1.0000 0.0000
vn -0.0000 0.5000 -0.8660
vn 0.0000 -0.5000 -0.8660
vn 0.0000 -1.0000 -0.0000
vn 0.0000 -0.5000 0.8660
vn 1.0000 0.0000 -0.0000
vn 1.0000 0.0000 0.0000
vn -1.0000 -0.0000 -0.0000
vn -1.0000 -0.0000 0.0000
vn -0.0000 1.0000 0.0000
vn -0.0000 1.0000 -0.0000
vn 0.0000 1.0000 -0.0000
vn -0.0000 0.0000 1.0000
vn -0.8444 0.5358 0.0000
vn -0.0000 0.0000 -1.0000
vn 0.0000 -0.0000 1.0000
vn -0.0000 -1.0000 0.0000
vn 1.0000 -0.0000 -0.0000
vn 1.0000 -0.0000 0.0000
vn -0.0000 -0.0000 -1.0000
vn 0.7220 0.6919 0.0000
vn 0.6842 -0.7293 0.0000
vn 0.0026 -0.9999 -0.0111
vn 0.0002 -1.0000 0.0000
vn 0.0026 -0.9999 0.0111
vn -0.0041 -1.0000 0.0000
vn 0.0013 0.0002 -1.0000
vn -0.0013 -0.0002 1.0000
vn -0.9508 -0.3098 -0.0000
vn 0.7075 0.7068 0.0000
vn 0.7075 0.7068 -0.0000
vn -0.7263 0.6874 -0.0000
vn 0.9475 -0.3198 0.0000
vn 0.6685 -0.0000 0.7437
vn 0.5658 -0.5327 0.6294
vn 0.6685 -0.0000 -0.7437
vn 0.5658 -0.5327 -0.6294
# 57 vertex normals

vt 0.5000 1.0000 0.0000
vt 0.5000 0.0000 0.0000
vt 1.0000 0.0000 0.0000
vt 1.0000 1.0000 0.0000
vt 0.0000 0.0000 0.0000
vt 0.0000 1.0000 0.0000
vt 0.2500 0.0000 1.0000
vt 0.4167 0.0000 1.0000
vt 0.4167 1.0000 1.0000
vt 0.2500 1.0000 1.0000
vt 0.5833 0.0000 1.0000
vt 0.5833 1.0000 1.0000
vt 0.7500 0.0000 1.0000
vt 0.7500 1.0000 1.0000
vt 0.9330 0.2500 -0.2500
vt 0.5000 0.0000 -0.2500
vt 0.5000 1.0000 -0.2500
vt 0.9330 0.7500 -0.2500
vt 0.5000 1.0000 0.2500
vt 0.5000 0.6667 0.2500
vt 0.9330 0.7500 0.2500
vt 0.5000 0.6667 -0.2500
vt 0.5000 0.0000 0.2500
vt 0.9330 0.2500 0.2500
vt 0.9167 0.0000 1.0000
vt 0.9167 1.0000 1.0000
vt 1.0833 0.0000 1.0000
vt 1.0833 1.0000 1.0000
vt 0.0833 0.0000 1.0000
vt 0.0833 1.0000 1.0000
vt 0.0670 0.2500 -0.2500
vt 0.0670 0.7500 -0.2500
vt 0.0670 0.7500 0.2500
vt 0.0670 0.2500 0.2500
vt 0.5000 0.3333 -0.2500
vt 0.5000 0.3333 0.2500
# 36 texture coords

g Box003
usemtl 02___Default
s off
f 1/1/1 2/2/1 3/3/1 4/4/1 
f 5/5/2 6/2/2 7/1/2 8/6/2 
f 2/2/3 6/1/3 5/6/3 3/5/3 
f 9/5/4 10/3/4 11/4/4 12/6/4 
f 1/2/5 7/1/5 11/6/5 10/5/5 
f 4/5/5 3/3/5 5/4/5 8/6/5 
f 10/6/1 9/5/1 2/2/1 1/1/1 
f 12/3/2 11/4/2 7/1/2 6/2/2 
f 9/3/6 12/4/6 6/1/6 2/2/6 
f 4/3/7 8/4/7 7/1/7 1/2/7 
f 13/3/1 14/4/1 15/6/1 16/5/1 
f 17/5/2 18/3/2 19/4/2 20/6/2 
f 13/5/8 16/3/8 18/4/8 17/6/8 
f 16/5/9 15/3/9 19/4/9 18/6/9 
f 15/5/10 14/3/10 20/4/10 19/6/10 
f 14/5/11 13/3/11 17/4/11 20/6/11 
f 21/7/12 22/8/12 23/9/12 24/10/12 
f 22/8/13 25/11/13 26/12/13 23/9/13 
f 25/11/14 27/13/14 28/14/14 26/12/14 
f 22/15/15 21/16/15 27/17/15 25/18/15 
f 28/19/16 29/20/16 26/21/16 
f 30/7/17 31/8/17 32/9/17 33/10/17 
f 31/8/2 34/11/2 35/12/2 32/9/2 
f 34/11/18 36/13/18 37/14/18 35/12/18 
f 34/18/19 38/22/19 36/17/19 
f 33/23/15 32/24/15 35/21/15 37/19/15 
f 39/13/20 40/25/20 41/26/20 42/14/20 
f 43/25/21 44/27/21 45/28/21 46/26/21 
f 47/29/22 48/7/22 49/10/22 50/30/22 
f 48/7/23 51/8/23 52/9/23 49/10/23 
f 51/8/24 53/11/24 54/12/24 52/9/24 
f 53/11/25 39/13/25 42/14/25 54/12/25 
f 51/15/26 48/16/26 47/31/26 39/17/26 
f 47/31/26 40/32/26 39/17/26 
f 53/18/27 51/15/27 39/17/27 
usemtl 03___Default
f 55/33/28 56/34/28 57/23/28 58/21/28 
f 57/23/15 59/24/15 58/21/15 
f 60/19/29 55/33/29 58/21/29 
usemtl 02___Default
f 42/19/15 41/33/15 61/33/15 62/19/15 
f 41/33/15 50/34/15 63/34/15 61/33/15 
f 50/34/15 49/23/15 64/23/15 63/34/15 
f 49/23/29 52/24/29 65/24/29 64/23/29 
f 52/24/28 54/21/28 66/21/28 65/24/28 
f 54/21/15 42/19/15 62/19/15 66/21/15 
usemtl 03___Default
f 62/19/23 61/33/23 55/33/23 60/19/23 
f 61/33/24 63/34/24 56/34/24 55/33/24 
f 63/34/25 64/23/25 57/23/25 56/34/25 
f 64/23/20 65/24/20 59/24/20 57/23/20 
f 65/24/30 66/21/30 58/21/30 59/24/30 
f 66/21/22 62/19/22 60/19/22 58/21/22 
usemtl 02___Default
f 41/26/31 40/25/31 67/25/31 68/26/31 
f 40/25/31 47/27/31 69/27/31 67/25/31 
f 47/27/30 50/28/30 70/28/30 69/27/30 
f 50/28/32 41/26/32 68/26/32 70/28/32 
f 68/26/33 67/25/33 43/25/33 46/26/33 
f 67/25/26 69/27/26 44/27/26 43/25/26 
f 69/27/13 70/28/13 45/28/13 44/27/13 
f 70/28/34 68/26/34 46/26/34 45/28/34 
s 2
f 71/3/35 72/4/35 73/6/35 74/5/35 
s 4
f 75/5/2 76/3/33 77/4/33 78/6/36 
s 8
f 79/5/37 80/3/37 81/4/37 82/6/6 
s 16
f 83/5/38 84/3/38 85/4/39 86/6/39 
s 32
f 73/5/32 72/3/5 78/4/5 77/6/32 
s 64
f 72/5/15 71/3/15 75/4/15 78/6/15 
s off
f 74/5/40 73/3/40 84/3/40 83/5/40 
f 87/3/41 88/4/41 89/4/41 90/3/41 
f 77/4/36 76/6/36 86/6/36 85/4/36 
f 76/6/42 74/5/42 83/5/42 86/6/42 
f 91/5/43 71/5/43 74/3/43 92/3/43 
f 74/3/44 76/4/44 93/4/44 92/3/44 
f 93/4/45 76/4/45 75/6/45 94/6/45 
f 75/6/46 71/5/46 91/5/46 94/6/46 
f 91/5/47 92/3/47 80/3/47 79/5/47 
f 92/3/26 93/4/26 81/4/26 80/3/26 
f 93/4/48 94/6/48 82/6/48 81/4/48 
f 94/6/49 91/5/49 79/5/49 82/6/49 
f 73/3/50 77/4/50 95/4/50 96/3/50 
f 77/4/51 85/4/51 97/4/51 95/4/51 
f 85/4/51 84/3/51 98/3/51 97/4/51 
f 84/3/51 73/3/51 96/3/51 98/3/51 
f 96/3/52 95/4/52 88/4/52 87/3/52 
f 95/4/36 97/4/36 89/4/36 88/4/36 
f 97/4/53 98/3/53 90/3/53 89/4/53 
f 98/3/35 96/3/35 87/3/35 90/3/35 
f 31/15/54 99/35/54 38/22/54 34/18/54 
f 31/15/55 30/16/55 99/35/55 
f 100/36/56 23/24/56 26/21/56 29/20/56 
f 100/36/57 24/23/57 23/24/57 
# 80 polygons - 8 triangles

